<svg xmlns="http://www.w3.org/2000/svg" viewBox="0 0 24 24"><path fill="#303c42" d="M21 10c0-3.343-1.896-9-9-9a.504.504 0 0 0-.354.146l-.355.355C3.813 1.608 3 7.468 3 10c0 1.13.262 2.236.417 2.789C3.062 13.331 3 13.983 3 14.5c0 .958.889 3.104 2.149 3.452l.04.099C5.734 19.404 7.183 23 12 23s6.266-3.596 6.811-4.949l.04-.099C20.111 17.604 21 15.458 21 14.5c0-.518-.062-1.169-.417-1.711.155-.555.417-1.662.417-2.789z"/><path fill="#6d4c41" d="M11.5 2.5c.133 0 .26-.053.354-.146l.352-.352C19.911 2.134 20 9.676 20 10a8.68 8.68 0 0 1-.161 1.58C18.964 7.978 15.66 6 13.5 6a.499.499 0 0 0-.3.1c-.019.015-1.894 1.4-4.2 1.4-2.727 0-4.373 2.246-4.853 4.007A8.633 8.633 0 0 1 4 10c0-2.801.975-7.5 7.5-7.5z"/><path fill="#fff" d="M11.5 3.497c.133 0 .26-.053.354-.146l.352-.352c6.64.114 7.622 5.719 7.768 7.478.009-.159.026-.316.026-.477 0-.324-.089-7.866-7.795-7.998l-.352.352a.5.5 0 0 1-.354.146c-6.525 0-7.5 4.699-7.5 7.5 0 .12.013.236.02.355.155-2.821 1.431-6.858 7.481-6.858z" opacity=".2"/><path fill="#fee8d7" d="M18.984 12.448c-.529 1.49-1.85 3.294-3.409 4.67A2.475 2.475 0 0 0 13.5 16h-3c-.854 0-1.623.43-2.075 1.118-1.568-1.385-2.898-3.204-3.42-4.699C5.057 11.041 6.461 8.5 9 8.5c2.27 0 4.124-1.137 4.651-1.495 1.658.097 4.811 1.76 5.333 5.443z"/><path d="M9.052 9.49c2.299 0 4.178-1.006 4.712-1.323 1.491.077 4.173 1.249 5.126 3.793-.72-3.339-3.658-4.862-5.239-4.955C13.124 7.363 11.27 8.5 9 8.5c-2.539 0-3.943 2.541-3.995 3.919.018.051.044.106.064.158.283-1.254 1.657-3.087 3.983-3.087z" opacity=".1"/><path fill="#fee8d7" d="M4.05 13.89c.032.464.084.989.169 1.51-.131-.339-.219-.666-.219-.9 0-.241.019-.439.05-.61z"/><path fill="#6d4c41" d="M17.883 17.678C17.362 18.971 16.143 22 12 22s-5.362-3.029-5.883-4.322a6.102 6.102 0 0 0-.167-.395c-.025-.052-.071-.084-.11-.123l.013-.013c-.34-.34-.563-1.261-.696-2.266a15.504 15.504 0 0 0 3.127 3.427.5.5 0 0 0 .79-.244A1.49 1.49 0 0 1 10.5 17h3c.657 0 1.23.428 1.426 1.063a.5.5 0 0 0 .79.244 15.481 15.481 0 0 0 3.127-3.427c-.133 1.005-.356 1.926-.696 2.266l.013.013c-.039.039-.085.072-.11.123a6.424 6.424 0 0 0-.167.396z"/><path d="M18.717 15.055c-.134.681-.32 1.248-.57 1.497l.013.013c-.039.039-.085.072-.11.123-.047.096-.102.23-.167.395-.521 1.293-1.74 4.322-5.883 4.322s-5.362-3.029-5.883-4.322a6.102 6.102 0 0 0-.167-.395c-.025-.052-.071-.084-.11-.123l.013-.013c-.25-.25-.436-.817-.57-1.497-.04-.058-.087-.116-.126-.174.133 1.005.356 1.926.696 2.266l-.013.013c.039.039.085.072.11.123.047.096.102.23.167.395C6.638 18.971 7.857 22 12 22s5.362-3.029 5.883-4.322c.065-.164.12-.299.167-.395.025-.052.071-.084.11-.123l-.013-.013c.34-.34.563-1.261.696-2.266-.039.058-.086.116-.126.174z" opacity=".1"/><path fill="#fee8d7" d="M19.78 15.4c.085-.521.137-1.046.169-1.51.031.171.05.369.05.61.001.234-.087.561-.219.9z"/><circle cx="8.5" cy="13" r="1" fill="#303c42"/><circle cx="15.5" cy="13" r="1" fill="#303c42"/><path fill="#303c42" d="M13 18h-2a.5.5 0 0 0 0 1h2a.5.5 0 0 0 0-1z"/><linearGradient id="a" x1="2.968" x2="20.67" y1="16.358" y2="8.103" gradientTransform="matrix(1 0 0 -1 0 24)" gradientUnits="userSpaceOnUse"><stop offset="0" stop-color="#fff" stop-opacity=".2"/><stop offset="1" stop-color="#fff" stop-opacity="0"/></linearGradient><path fill="url(#a)" d="M21 10c0-3.343-1.896-9-9-9a.504.504 0 0 0-.354.146l-.355.355C3.813 1.608 3 7.468 3 10c0 1.13.262 2.236.417 2.789C3.062 13.331 3 13.983 3 14.5c0 .958.889 3.104 2.149 3.452l.04.099C5.734 19.404 7.183 23 12 23s6.266-3.596 6.811-4.949l.04-.099C20.111 17.604 21 15.458 21 14.5c0-.518-.062-1.169-.417-1.711.155-.555.417-1.662.417-2.789z"/></svg>