<svg xmlns="http://www.w3.org/2000/svg" viewBox="0 0 24 24"><path fill="#303c42" d="M21 11c0-2.649-1.32-7.287-6.13-8.612.081-.151.13-.285.13-.388 0-.826-1.293-2-2.5-2-1.422 0-3.021.52-4.452 1.186A.973.973 0 0 0 7.5 1c-.549 0-.994.445-.999.993-1.075.622-1.932 1.249-2.347 1.645C3.389 4.37 3 5.486 3 6.955a.91.91 0 0 0 .417.771c.021.014.054.017.076.03A11.105 11.105 0 0 0 3 11c0 1.128.262 2.235.417 2.789C3.062 14.331 3 14.983 3 15.5c0 .958.889 3.104 2.15 3.452l.04.1C5.735 20.405 7.183 24 12 24s6.265-3.595 6.81-4.949l.04-.1c1.262-.348 2.15-2.494 2.15-3.452 0-.517-.062-1.169-.417-1.711.155-.553.417-1.66.417-2.788z"/><path fill="#01579b" d="M4.846 4.362c.395-.377 1.187-.945 2.167-1.507A.968.968 0 0 0 7.5 3c.518 0 .93-.4.981-.904C9.812 1.479 11.271 1 12.5 1c.7 0 1.38.676 1.487.961-.33.586-2.895 3.118-5.173 4.029-2.428.971-4.523 1.186-4.814.964 0-1.184.284-2.057.846-2.592z"/><path fill="#fff" d="M4.5 6.955c0-1.186.284-2.058.846-2.593.367-.351 1.087-.868 1.974-1.391a1.138 1.138 0 0 1-.307-.116c-.98.562-1.772 1.13-2.167 1.507C4.284 4.897 4 5.77 4 6.955c.089.068.365.089.752.065-.116-.012-.209-.032-.252-.065z" opacity=".2"/><path fill="#6d4c41" d="M4.636 8c1.42 0 3.433-.634 4.55-1.081 1.69-.676 3.883-2.387 5.032-3.66C19.921 4.54 20 10.732 20 11a8.69 8.69 0 0 1-.161 1.581C18.965 8.978 15.66 7 13.5 7a.499.499 0 0 0-.3.1c-.019.014-1.894 1.4-4.2 1.4-2.727 0-4.373 2.246-4.853 4.006A8.622 8.622 0 0 1 4 11c0-.762.097-1.876.467-3.015.059.002.107.015.169.015z"/><path fill="#fee8d7" d="M18.5 18a.499.499 0 0 0-.45.283c-.047.096-.102.23-.167.395-.495 1.229-1.626 4.018-5.288 4.295l.398-2.391a.5.5 0 1 0-.986-.164l-.007.04-.007-.041a.5.5 0 1 0-.986.164l.398 2.391c-3.662-.277-4.793-3.066-5.288-4.295a5.869 5.869 0 0 0-.167-.395A.5.5 0 0 0 5.5 18C4.872 18 4 16.264 4 15.5c0-.643.124-1.007.302-1.234.013-.012.032-.016.044-.029.115-.131.23-.221.363-.282A.502.502 0 0 0 5 13.5c0-1.357 1.412-4 4-4 2.27 0 4.124-1.137 4.651-1.496 1.675.099 4.882 1.792 5.353 5.558.021.171.13.319.286.392.133.061.248.151.363.282.014.016.034.023.049.037.175.228.297.59.297 1.227.001.764-.871 2.5-1.499 2.5z"/><path fill="#fff" d="M6.807 18.678a7.167 7.167 0 0 0-.147-.395.44.44 0 0 0-.398-.283c-.554 0-1.324-1.736-1.324-2.5 0-.643.11-1.007.267-1.234.012-.012.029-.016.039-.029a.972.972 0 0 1 .321-.282.509.509 0 0 0 .256-.454c0-1.357 1.247-4 3.531-4 1.011 0 1.928-.29 2.649-.623-.817.333-1.855.623-3 .623-2.588 0-4 2.643-4 4a.5.5 0 0 1-.29.454 1.072 1.072 0 0 0-.363.282c-.012.014-.031.017-.044.029-.18.227-.304.591-.304 1.234 0 .764.872 2.5 1.5 2.5.192 0 .367.11.45.283.047.096.102.23.167.395.495 1.229 1.626 4.018 5.288 4.295l-.002-.01c-3.173-.313-4.162-3.066-4.596-4.285z" opacity=".2"/><path d="M19.703 14.273c-.016-.014-.036-.021-.049-.037a1.072 1.072 0 0 0-.363-.282.502.502 0 0 1-.286-.392c-.471-3.765-3.678-5.458-5.353-5.558l-.043.028c1.51.192 4.172 1.881 4.575 5.53a.502.502 0 0 0 .253.392.982.982 0 0 1 .321.282c.012.016.03.023.044.037.155.228.262.59.262 1.227 0 .764-.77 2.5-1.324 2.5-.17 0-.324.11-.397.283-.041.096-.09.23-.147.395-.434 1.219-1.423 3.972-4.597 4.285l-.002.01c3.662-.277 4.793-3.066 5.288-4.295.065-.165.12-.299.167-.395A.494.494 0 0 1 18.5 18c.628 0 1.5-1.736 1.5-2.5 0-.637-.122-.999-.297-1.227z" opacity=".1"/><circle cx="8.5" cy="14" r="1" fill="#303c42"/><circle cx="15.5" cy="14" r="1" fill="#303c42"/><path fill="#303c42" d="M11 17.279c-.153 0-.293.025-.419.065-.454.13-.754.446-.983.697-.389.425-.583.64-1.396.281a.5.5 0 1 0-.404.914c.425.188.78.263 1.082.263.741 0 1.154-.452 1.457-.783.033-.036.054-.05.083-.081.162.085.353.144.58.144.579 0 1-.315 1-.75s-.421-.75-1-.75zm4.798 1.043c-.813.36-1.008.145-1.396-.281-.229-.251-.529-.567-.983-.697a1.379 1.379 0 0 0-.419-.065c-.579 0-1 .315-1 .75s.421.75 1 .75c.227 0 .417-.059.58-.144.029.031.051.045.083.081.303.332.716.783 1.457.783.302 0 .657-.075 1.082-.263a.499.499 0 1 0-.404-.914z"/><linearGradient id="a" x1="8.486" x2="18.471" y1="20.035" y2="10.05" gradientTransform="matrix(1 0 0 -1 0 24)" gradientUnits="userSpaceOnUse"><stop offset="0" stop-opacity=".1"/><stop offset="1" stop-opacity="0"/></linearGradient><path fill="url(#a)" d="M9 8.5c2.307 0 4.182-1.386 4.2-1.4a.496.496 0 0 1 .3-.1c2.16 0 5.465 1.978 6.339 5.581A8.69 8.69 0 0 0 20 11c0-.268-.079-6.46-5.783-7.74-1.149 1.273-3.342 2.984-5.032 3.66C8.068 7.366 6.056 8 4.636 8c-.061 0-.11-.013-.169-.016l1.591 1.591C6.831 8.943 7.805 8.5 9 8.5z"/><linearGradient id="b" x1="2.083" x2="20.926" y1="16.44" y2="7.653" gradientTransform="matrix(1 0 0 -1 0 24)" gradientUnits="userSpaceOnUse"><stop offset="0" stop-color="#fff" stop-opacity=".2"/><stop offset="1" stop-color="#fff" stop-opacity="0"/></linearGradient><path fill="url(#b)" d="M21 11c0-2.649-1.32-7.287-6.13-8.612.081-.151.13-.285.13-.388 0-.826-1.293-2-2.5-2-1.422 0-3.021.52-4.452 1.186A.973.973 0 0 0 7.5 1c-.549 0-.994.445-.999.993-1.075.622-1.932 1.249-2.347 1.645C3.389 4.37 3 5.486 3 6.955a.91.91 0 0 0 .417.771c.021.014.054.017.076.03A11.105 11.105 0 0 0 3 11c0 1.128.262 2.235.417 2.789C3.062 14.331 3 14.983 3 15.5c0 .958.889 3.104 2.15 3.452l.04.1C5.735 20.405 7.183 24 12 24s6.265-3.595 6.81-4.949l.04-.1c1.262-.348 2.15-2.494 2.15-3.452 0-.517-.062-1.169-.417-1.711.155-.553.417-1.66.417-2.788z"/></svg>