<svg xmlns="http://www.w3.org/2000/svg" viewBox="0 0 24 24"><path fill="#303c42" d="M21 10c0-3.343-1.896-9-9-9a.504.504 0 0 0-.354.146l-.355.355C3.813 1.608 3 7.468 3 10c0 1.128.262 2.235.417 2.789C3.062 13.331 3 13.983 3 14.5c0 .958.889 3.104 2.15 3.452l.04.1C5.735 19.405 7.183 23 12 23s6.265-3.595 6.81-4.949l.04-.1c1.262-.348 2.15-2.494 2.15-3.452 0-.517-.062-1.169-.417-1.711.155-.553.417-1.66.417-2.788z"/><path fill="#6d4c41" d="M11.5 2.5c.133 0 .26-.053.354-.146l.352-.352C19.911 2.133 20 9.676 20 10a8.69 8.69 0 0 1-.161 1.581C18.965 7.978 15.66 6 13.5 6a.499.499 0 0 0-.3.1c-.019.014-1.894 1.4-4.2 1.4-2.727 0-4.373 2.246-4.853 4.006A8.622 8.622 0 0 1 4 10c0-2.801.975-7.5 7.5-7.5z"/><path fill="#fee8d7" d="M18.5 17a.499.499 0 0 0-.45.283c-.047.096-.102.23-.167.395C17.361 18.971 16.142 22 12 22s-5.361-3.029-5.883-4.322a5.869 5.869 0 0 0-.167-.395A.499.499 0 0 0 5.5 17C4.872 17 4 15.264 4 14.5c0-.643.124-1.006.302-1.234.014-.012.032-.016.045-.03.115-.131.23-.221.363-.282A.5.5 0 0 0 5 12.5c0-1.357 1.412-4 4-4 2.27 0 4.124-1.137 4.651-1.496 1.675.099 4.882 1.792 5.353 5.558.021.171.13.319.286.392.133.061.248.151.363.282.014.016.034.023.049.037.175.228.297.59.297 1.227.001.764-.871 2.5-1.499 2.5z"/><path fill="#303c42" d="M16.5 13a1.001 1.001 0 0 0-2 0c-.552 0-1.03.303-1.29.748-.3-.131-.688-.248-1.21-.248s-.91.117-1.21.248A1.494 1.494 0 0 0 9.5 13a1.001 1.001 0 0 0-2 0c-.827 0-1.5.673-1.5 1.5v.5c0 1.103 1.121 2 2.5 2s2.5-.897 2.5-2v-.247c.169-.105.486-.253 1-.253.516 0 .834.149 1 .252V15c0 1.103 1.121 2 2.5 2s2.5-.897 2.5-2v-.5c0-.827-.673-1.5-1.5-1.5z"/><path fill="#bbdefb" d="M10 15c0 .542-.687 1-1.5 1S7 15.542 7 15v-.5a.5.5 0 0 1 .5-.5h2a.5.5 0 0 1 .5.5v.5zm7 0c0 .542-.687 1-1.5 1s-1.5-.458-1.5-1v-.5a.5.5 0 0 1 .5-.5h2a.5.5 0 0 1 .5.5v.5z"/><path fill="#fff" d="M12.21 3.21c.133 0 .26-.053.354-.146l.352-.352c2.339.04 3.968.767 5.114 1.764-1.146-1.348-2.956-2.425-5.824-2.473l-.352.352a.5.5 0 0 1-.354.146c-6.525 0-7.5 4.699-7.5 7.5 0 .526.065 1.052.147 1.506.12-.44.313-.911.577-1.369.137-2.824 1.387-6.928 7.486-6.928z" opacity=".2"/><path fill="#fff" d="M6.853 17.677a8.584 8.584 0 0 0-.146-.394.438.438 0 0 0-.395-.283C5.763 17 5 15.264 5 14.5c0-.643.108-1.006.264-1.234.012-.012.029-.016.039-.03a.959.959 0 0 1 .317-.282.509.509 0 0 0 .254-.454c0-1.357 1.235-4 3.5-4 1.002 0 1.91-.29 2.625-.623-.817.333-1.855.623-3 .623-2.588 0-4 2.643-4 4a.498.498 0 0 1-.291.454 1.07 1.07 0 0 0-.363.282c-.012.014-.031.018-.045.03-.176.228-.3.591-.3 1.234 0 .764.872 2.5 1.5 2.5.192 0 .367.11.451.283.046.096.101.23.167.394C6.638 18.971 7.857 22 12 22c-3.625 0-4.692-3.029-5.147-4.323z" opacity=".2"/><path d="M19.703 13.273c-.016-.014-.036-.021-.05-.037a1.072 1.072 0 0 0-.363-.282.5.5 0 0 1-.286-.392c-.471-3.765-3.677-5.458-5.352-5.558l-.046.03c1.499.198 4.125 1.887 4.523 5.528a.502.502 0 0 0 .25.392.974.974 0 0 1 .318.282c.012.016.03.023.043.037.153.228.26.59.26 1.227 0 .764-.763 2.5-1.313 2.5a.437.437 0 0 0-.394.283c-.04.096-.088.23-.146.394C16.692 18.971 15.625 22 12 22c4.143 0 5.362-3.029 5.883-4.323.066-.164.121-.298.167-.394A.499.499 0 0 1 18.5 17c.628 0 1.5-1.736 1.5-2.5 0-.637-.122-.999-.297-1.227z" opacity=".1"/><circle cx="7.517" cy="14.502" r=".346" fill="#fff" opacity=".2"/><circle cx="14.798" cy="14.502" r=".346" fill="#fff" opacity=".2"/><linearGradient id="a" x1="2.968" x2="20.669" y1="16.358" y2="8.103" gradientTransform="matrix(1 0 0 -1 0 24)" gradientUnits="userSpaceOnUse"><stop offset="0" stop-color="#fff" stop-opacity=".2"/><stop offset="1" stop-color="#fff" stop-opacity="0"/></linearGradient><path fill="url(#a)" d="M21 10c0-3.343-1.896-9-9-9a.504.504 0 0 0-.354.146l-.355.355C3.813 1.608 3 7.468 3 10c0 1.128.262 2.235.417 2.789C3.062 13.331 3 13.983 3 14.5c0 .958.889 3.104 2.15 3.452l.04.1C5.735 19.405 7.183 23 12 23s6.265-3.595 6.81-4.949l.04-.1c1.262-.348 2.15-2.494 2.15-3.452 0-.517-.062-1.169-.417-1.711.155-.553.417-1.66.417-2.788z"/></svg>